#!OML:ASF F:\VICON\USERDATA\INSTALL\rory3\rory3.ASF
:FULLY-SPECIFIED
:DEGREES
989
root 9.394 17.6608 6.19187 365.294 -21.8398 359.31
lowerback 7.23269 -0.0802888 -1.99986
upperback -0.33105 -0.123862 3.71625
thorax -4.39594 0.0236426 5.02121
lowerneck -14.2353 -6.81171 -10.5142
upperneck 34.814 -9.35739 5.42732
head 15.3904 -4.73874 2.44163
rclavicle 6.03311e-014 -1.74931e-014
rhumerus -28.4509 6.44042 -75.907
rradius 51.7496
rwrist 22.7206
rhand -20.5305 5.08414
rfingers 7.12502
rthumb 5.82767 -24.8157
lclavicle 6.03311e-014 -1.74931e-014
lhumerus -37.6752 5.64062 83.6295
lradius 31.5964
lwrist -7.02359
lhand -11.3109 21.1794
lfingers 7.12502
lthumb 14.721 50.6367
rfemur -26.0492 8.33169 5.00407
rtibia 22.2049
rfoot -5.55843 1.00256
rtoes -3.80528
lfemur -6.40181 -6.22799 -15.3961
ltibia 21.7096
lfoot -16.2375 -8.41044
ltoes -9.94437
990
root 9.48296 17.6862 6.1579 365.409 -22.7429 359.413
lowerback 7.11938 -0.21795 -2.40513
upperback -0.283039 -0.343714 3.69682
thorax -4.25771 -0.0804975 5.2535
lowerneck -14.0946 -7.17223 -10.7787
upperneck 34.9518 -9.97778 5.68593
head 15.5338 -5.01106 2.4812
rclavicle 5.76476e-015 -3.97569e-015
rhumerus -28.4607 6.20631 -76.0764
rradius 51.6435
rwrist 22.4417
rhand -20.854 5.11423
rfingers 7.12502
rthumb 5.51535 -24.794
lclavicle 5.76476e-015 -3.97569e-015
lhumerus -37.5803 5.42525 83.2078
lradius 31.5613
lwrist -7.92042
lhand -10.1407 21.4038
lfingers 7.12502
lthumb 15.8481 50.7752
rfemur -26.6345 7.7498 5.40045
rtibia 22.9996
rfoot -7.30719 -0.478063
rtoes -2.82203
lfemur -6.63305 -5.84048 -15.7911
ltibia 21.6217
lfoot -15.873 -8.21605
ltoes -8.70618
991
root 9.56913 17.7156 6.12519 365.498 -23.6085 359.378
lowerback 7.17218 -0.361078 -2.698
upperback -0.322074 -0.55812 3.7403
thorax -4.30224 -0.178457 5.49186
lowerneck -13.7604 -7.34667 -10.9267
upperneck 35.0587 -10.2869 5.7194
head 15.5583 -5.17266 2.47084
rclavicle -8.05078e-015 -8.74653e-015
rhumerus -28.6545 6.06411 -76.2388
rradius 51.5005
rwrist 22.3046
rhand -21.2067 5.12336
rfingers 7.12502
rthumb 5.17481 -24.7935
lclavicle -8.05078e-015 -8.74653e-015
lhumerus -37.7901 5.7041 82.5752
lradius 31.6592
lwrist -9.14127
lhand -8.77335 21.7001
lfingers 7.12502
lthumb 17.1646 50.9619
rfemur -27.1291 7.15789 6.03219
rtibia 23.8832
rfoot -9.06818 -2.12113
rtoes -2.50663
lfemur -6.80578 -5.68837 -16.009
ltibia 21.5259
lfoot -15.3408 -8.10512
ltoes -5.43243
992
root 9.65412 17.7408 6.08957 365.6 -24.4044 359.226
lowerback 7.24507 -0.4915 -2.86004
upperback -0.305128 -0.744862 3.81618
thorax -4.30154 -0.267517 5.68654
lowerneck -13.3435 -7.52006 -11.1532
upperneck 34.9783 -10.6014 5.86003
head 15.4876 -5.33326 2.51983
rclavicle 2.72335e-014 3.10104e-014
rhumerus -28.7509 5.82245 -76.3577
rradius 51.2772
rwrist 22.4232
rhand -21.7525 5.20666
rfingers 7.12502
rthumb 4.64776 -24.7224
lclavicle 2.72335e-014 3.10104e-014
lhumerus -37.7552 6.0594 81.9622
lradius 31.4819
lwrist -9.96802
lhand -7.84527 21.6384
lfingers 7.12502
lthumb 18.0577 50.8201
rfemur -27.5278 6.32686 6.92737
rtibia 24.7874
rfoot -10.493 -3.89822
rtoes -3.15751
lfemur -6.94332 -5.5266 -16.1299
ltibia 21.4701
lfoot -15.0632 -7.70408
ltoes -3.99747
993
root 9.73722 17.7579 6.05578 365.669 -25.2286 359.072
lowerback 7.26766 -0.588926 -2.96755
upperback -0.206832 -0.885142 3.85852
thorax -4.19274 -0.339697 5.80648
lowerneck -13.0323 -7.78661 -11.4815
upperneck 34.9311 -11.0741 6.14242
head 15.4996 -5.55239 2.61233
rclavicle 3.84648e-014 1.19271e-014
rhumerus -28.8059 5.62457 -76.4773
rradius 51.1061
rwrist 22.458
rhand -22.1966 5.04774
rfingers 7.12502
rthumb 4.2189 -24.8902
lclavicle 3.84648e-014 1.19271e-014
lhumerus -37.4936 5.95204 81.5339
lradius 31.1704
lwrist -10.0905
lhand -7.37559 21.7741
lfingers 7.12502
lthumb 18.5096 50.9135
rfemur -27.8401 5.34943 7.89964
rtibia 25.6885
rfoot -11.5693 -5.49603
rtoes -3.56602
lfemur -7.01173 -5.19857 -16.2813
ltibia 21.4665
lfoot -15.0067 -7.19236
ltoes -4.20919
